<?xml version="1.0" encoding="utf-8"?>
<svg viewBox="0 0 27 32" width="27" height="32" xmlns="http://www.w3.org/2000/svg">
  <defs>
    <linearGradient id="gradient-1" gradientUnits="userSpaceOnUse" x1="13.637" y1="2.887" x2="13.637" y2="29.113" gradientTransform="matrix(0.725116, -0.668956, 0.872763, 0.954079, -9.620831, 9.959212)">
      <stop offset="0" style="stop-color: rgb(53, 75, 114);"/>
      <stop offset="1" style="stop-color: rgb(44, 115, 177);"/>
    </linearGradient>
    <linearGradient id="gradient-2" gradientUnits="userSpaceOnUse" x1="9.704" y1="12.329" x2="9.704" y2="24.919" gradientTransform="matrix(0.691908, -0.721986, 2.109212, 2.021338, -32.103747, -14.423613)">
      <stop offset="0" style="stop-color: rgb(52, 80, 122);"/>
      <stop offset="1" style="stop-color: rgb(44, 114, 176);"/>
    </linearGradient>
    <linearGradient id="gradient-3" gradientUnits="userSpaceOnUse" x1="9.704" y1="12.329" x2="9.704" y2="24.919" gradientTransform="matrix(0.691908, -0.721986, 2.109212, 2.021338, -32.103747, -14.423613)">
      <stop offset="0" style="stop-color: rgb(52, 80, 122);"/>
      <stop offset="1" style="stop-color: rgb(44, 114, 176);"/>
    </linearGradient>
  </defs>
  <g id="icomoon-ignore" transform="matrix(1, 0, 0, 1, 2.220446049250313e-16, 4.440892098500626e-16)"/>
  <path d="M 16.785 12.328 L 24.127 12.328 L 24.127 13.377 L 16.785 13.377 L 16.785 12.328 Z" style="fill: rgb(49, 92, 141);" transform="matrix(1, 0, 0, 1, 2.220446049250313e-16, 4.440892098500626e-16)"/>
  <path d="M 16.742 18.623 L 24.085 18.623 L 24.085 19.672 L 16.742 19.672 L 16.742 18.623 Z" style="fill: rgb(48, 99, 152);" transform="matrix(1, 0, 0, 1, 2.220446049250313e-16, 4.440892098500626e-16)"/>
  <path d="M 16.784 15.475 L 22.021 15.475 L 22.021 16.524 L 16.784 16.524 L 16.784 15.475 Z" style="fill: rgb(48, 96, 147);" transform="matrix(1, 0, 0, 1, 2.220446049250313e-16, 4.440892098500626e-16)"/>
  <path d="M 15.493 5.999 L 15.493 2.887 L 11.362 2.887 L 11.362 5.999 L 0 5.999 L 0 28.82 L 26.856 28.82 L 26.856 5.999 L 15.494 5.999 Z M 25.823 7.036 L 25.823 9.111 L 15.494 9.111 L 15.494 7.036 L 25.823 7.036 Z M 12.395 3.924 L 14.46 3.924 L 14.46 9.111 L 12.395 9.111 L 12.395 3.924 Z M 1.033 7.036 L 11.362 7.036 L 11.362 9.111 L 1.033 9.111 L 1.033 7.036 Z M 1.033 27.783 L 1.033 10.149 L 25.823 10.149 L 25.823 27.783 L 1.033 27.783 Z" style="fill: url(#gradient-1);" transform="matrix(1, 0, 0, 1, 2.220446049250313e-16, 4.440892098500626e-16)"/>
  <path d="M 15.463 23.402 C 14.706 23.087 12.918 22.466 11.811 22.139 C 11.717 22.109 11.703 22.104 11.703 21.711 C 11.703 21.387 11.836 21.061 11.966 20.784 C 12.106 20.483 12.274 19.978 12.334 19.525 C 12.502 19.329 12.73 18.945 12.879 18.212 C 13.007 17.567 12.948 17.331 12.862 17.11 C 12.853 17.087 12.844 17.064 12.836 17.041 C 12.803 16.889 12.848 16.103 12.959 15.492 C 13.035 15.074 12.94 14.183 12.363 13.446 C 11.999 12.98 11.303 12.409 10.029 12.329 L 9.33 12.33 C 8.079 12.409 7.381 12.981 7.018 13.446 C 6.441 14.183 6.345 15.074 6.421 15.492 C 6.533 16.103 6.577 16.889 6.545 17.038 C 6.539 17.064 6.529 17.087 6.519 17.11 C 6.434 17.331 6.373 17.566 6.503 18.212 C 6.649 18.945 6.878 19.329 7.047 19.525 C 7.105 19.978 7.273 20.483 7.415 20.784 C 7.518 21.004 7.568 21.303 7.568 21.726 C 7.568 22.119 7.553 22.124 7.465 22.152 C 6.321 22.49 4.498 23.148 3.819 23.445 C 3.28 23.676 3.149 24.091 3.149 24.465 C 3.149 24.57 3.149 24.733 3.149 24.918 L 4.198 24.918 L 4.198 24.465 C 4.198 24.448 4.199 24.435 4.2 24.425 C 4.209 24.42 4.221 24.414 4.239 24.407 C 4.884 24.124 6.672 23.48 7.782 23.152 C 8.617 22.887 8.617 22.103 8.617 21.726 C 8.617 21.145 8.537 20.704 8.365 20.337 C 8.26 20.113 8.13 19.716 8.088 19.391 L 8.047 19.078 L 7.841 18.839 C 7.809 18.803 7.649 18.595 7.532 18.006 C 7.452 17.609 7.481 17.535 7.497 17.492 C 7.525 17.424 7.548 17.357 7.57 17.262 C 7.662 16.838 7.54 15.779 7.454 15.307 C 7.425 15.152 7.466 14.577 7.844 14.093 C 8.176 13.668 8.688 13.428 9.366 13.38 L 9.995 13.379 C 10.686 13.428 11.204 13.668 11.536 14.093 C 11.915 14.577 11.955 15.152 11.927 15.306 C 11.841 15.778 11.719 16.836 11.81 17.263 L 11.819 17.304 L 11.83 17.344 C 11.844 17.39 11.86 17.434 11.882 17.493 C 11.899 17.537 11.928 17.61 11.849 18.006 C 11.73 18.596 11.569 18.806 11.537 18.842 L 11.333 19.079 L 11.292 19.389 C 11.249 19.715 11.12 20.114 11.015 20.338 C 10.845 20.698 10.651 21.179 10.651 21.713 C 10.651 22.09 10.651 22.875 11.512 23.147 C 12.56 23.456 14.317 24.063 15.047 24.368 C 15.158 24.415 15.198 24.473 15.209 24.495 L 15.209 24.919 L 16.258 24.919 C 16.258 24.735 16.258 24.571 16.258 24.466 C 16.258 24.092 15.999 23.635 15.461 23.403 Z" style="fill: url(#gradient-2);" transform="matrix(1, 0, 0, 1, 2.220446049250313e-16, 4.440892098500626e-16)"/>
  <path d="M 15.463 23.402 C 14.706 23.087 12.918 22.466 11.811 22.139 C 11.717 22.109 11.703 22.104 11.703 21.711 C 11.703 21.387 11.836 21.061 11.966 20.784 C 12.106 20.483 12.274 19.978 12.334 19.525 C 12.502 19.329 12.73 18.945 12.879 18.212 C 13.007 17.567 12.948 17.331 12.862 17.11 C 12.853 17.087 12.844 17.064 12.836 17.041 C 12.803 16.889 12.848 16.103 12.959 15.492 C 13.035 15.074 12.94 14.183 12.363 13.446 C 11.999 12.98 11.303 12.409 10.029 12.329 L 9.33 12.33 C 8.079 12.409 7.381 12.981 7.018 13.446 C 6.441 14.183 6.345 15.074 6.421 15.492 C 6.533 16.103 6.577 16.889 6.545 17.038 C 6.539 17.064 6.529 17.087 6.519 17.11 C 6.434 17.331 6.373 17.566 6.503 18.212 C 6.649 18.945 6.878 19.329 7.047 19.525 C 7.105 19.978 7.273 20.483 7.415 20.784 C 7.518 21.004 7.568 21.303 7.568 21.726 C 7.568 22.119 7.553 22.124 7.465 22.152 C 6.321 22.49 4.498 23.148 3.819 23.445 C 3.28 23.676 3.149 24.091 3.149 24.465 C 3.149 24.57 3.149 24.733 3.149 24.918 L 4.198 24.918 L 4.198 24.465 C 4.198 24.448 4.199 24.435 4.2 24.425 C 4.209 24.42 4.221 24.414 4.239 24.407 C 4.884 24.124 6.672 23.48 7.782 23.152 C 8.617 22.887 8.617 22.103 8.617 21.726 C 8.617 21.145 8.537 20.704 8.365 20.337 C 8.26 20.113 8.13 19.716 8.088 19.391 L 8.047 19.078 L 7.841 18.839 C 7.809 18.803 7.649 18.595 7.532 18.006 C 7.452 17.609 7.481 17.535 7.497 17.492 C 7.525 17.424 7.548 17.357 7.57 17.262 C 7.662 16.838 7.54 15.779 7.454 15.307 C 7.425 15.152 7.466 14.577 7.844 14.093 C 8.176 13.668 8.688 13.428 9.366 13.38 L 9.995 13.379 C 10.686 13.428 11.204 13.668 11.536 14.093 C 11.915 14.577 11.955 15.152 11.927 15.306 C 11.841 15.778 11.719 16.836 11.81 17.263 L 11.819 17.304 L 11.83 17.344 C 11.844 17.39 11.86 17.434 11.882 17.493 C 11.899 17.537 11.928 17.61 11.849 18.006 C 11.73 18.596 11.569 18.806 11.537 18.842 L 11.333 19.079 L 11.292 19.389 C 11.249 19.715 11.12 20.114 11.015 20.338 C 10.845 20.698 10.651 21.179 10.651 21.713 C 10.651 22.09 10.651 22.875 11.512 23.147 C 12.56 23.456 14.317 24.063 15.047 24.368 C 15.158 24.415 15.198 24.473 15.209 24.495 L 15.209 24.919 L 16.258 24.919 C 16.258 24.735 16.258 24.571 16.258 24.466 C 16.258 24.092 15.999 23.635 15.461 23.403 Z" style="fill: url(#gradient-3);" transform="matrix(1, 0, 0, 1, 2.220446049250313e-16, 4.440892098500626e-16)"/>
</svg>