<?xml version="1.0" encoding="utf-8"?>
<svg viewBox="0 0 30 32" width="30" height="32" xmlns="http://www.w3.org/2000/svg">
  <defs>
    <linearGradient id="gradient-5" gradientUnits="userSpaceOnUse" x1="15.282" y1="1.599" x2="15.282" y2="30.45" gradientTransform="matrix(0.792909, -0.54165, 0.62454, 0.914251, -7.120444, 9.555743)">
      <stop offset="0" style="stop-color: rgb(55, 65, 97);"/>
      <stop offset="1" style="stop-color: rgb(43, 122, 187);"/>
    </linearGradient>
  </defs>
  <g id="icomoon-ignore" transform="matrix(1, 0, 0, 1, 4.440892098500626e-16, 4.440892098500626e-16)"/>
  <path d="M 26.892 14.78 L 26.328 14.78 C 25.56 12.783 24.023 11.093 21.975 9.864 C 21.975 7.149 22.232 6.534 22.794 4.793 C 20.694 5.101 18.595 6.381 17.52 8.224 C 16.802 8.071 16.086 8.02 15.369 7.968 C 15.471 7.558 15.573 7.097 15.573 6.585 C 15.573 4.024 13.525 1.976 10.964 1.976 C 8.403 1.976 6.355 4.024 6.355 6.585 C 6.355 7.865 6.866 8.993 7.737 9.863 C 5.74 11.041 4.204 12.679 3.385 14.625 C 2.002 14.114 1.234 13.345 1.234 12.372 C 1.234 11.296 2.105 10.323 2.873 10.067 L 2.566 9.094 C 1.285 9.453 0.21 10.887 0.21 12.27 C 0.21 13.089 0.568 14.625 3.026 15.547 C 2.822 16.213 2.77 16.879 2.77 17.596 C 2.77 20.156 4.05 22.512 6.099 24.253 L 5.485 26.046 C 5.075 27.275 5.689 28.555 6.918 28.965 L 8.352 29.477 C 8.608 29.579 8.864 29.63 9.12 29.63 C 10.093 29.63 10.964 29.016 11.322 28.094 L 11.732 26.916 C 12.757 27.12 13.78 27.274 14.908 27.274 C 15.625 27.274 16.341 27.223 17.008 27.12 L 17.622 28.4 C 18.032 29.219 18.851 29.68 19.722 29.68 C 20.081 29.68 20.388 29.629 20.747 29.424 L 22.079 28.758 C 23.205 28.195 23.718 26.812 23.154 25.686 L 22.796 24.917 C 24.179 23.996 25.254 22.817 26.023 21.435 L 27.047 21.435 C 28.43 21.435 29.556 20.308 29.556 18.925 L 29.556 17.286 C 29.403 15.904 28.276 14.777 26.894 14.777 Z M 7.379 6.586 C 7.379 4.589 8.967 3.002 10.964 3.002 C 12.961 3.002 14.549 4.589 14.549 6.586 C 14.549 7.098 14.446 7.559 14.241 8.02 C 12.193 8.071 10.297 8.584 8.659 9.352 C 7.891 8.686 7.379 7.713 7.379 6.586 Z M 28.376 18.928 C 28.376 19.747 27.711 20.414 26.891 20.414 L 25.252 20.414 L 24.944 20.926 C 24.279 22.104 23.305 23.179 22.076 24.049 L 21.359 24.561 L 21.769 25.329 L 22.127 26.098 C 22.434 26.712 22.178 27.531 21.512 27.839 L 20.18 28.453 C 20.027 28.556 19.822 28.607 19.617 28.607 C 19.105 28.607 18.695 28.35 18.439 27.889 L 17.824 26.609 L 17.517 25.944 L 16.748 26.047 C 16.083 26.149 15.417 26.2 14.802 26.2 C 13.829 26.2 12.805 26.098 11.832 25.893 L 10.961 25.689 L 10.705 26.559 L 10.295 27.738 C 10.09 28.25 9.629 28.609 9.065 28.609 C 8.912 28.609 8.758 28.609 8.655 28.558 L 7.222 28.046 C 6.556 27.79 6.197 27.073 6.454 26.407 L 7.068 24.563 L 7.325 23.898 L 6.761 23.437 C 4.814 21.849 3.791 19.8 3.791 17.598 C 3.791 12.886 8.758 8.995 14.802 8.995 C 15.621 8.995 16.492 9.097 17.311 9.199 L 18.028 9.353 L 18.387 8.738 C 19.001 7.663 20.077 6.792 21.255 6.28 C 21.05 7.151 20.948 8.124 20.897 9.864 L 20.897 10.428 L 21.409 10.735 C 23.252 11.862 24.686 13.398 25.352 15.14 L 25.609 15.806 L 26.889 15.806 C 27.708 15.806 28.374 16.471 28.374 17.291 L 28.374 18.93 Z" style="fill: url(#gradient-5);" transform="matrix(1, 0, 0, 1, 4.440892098500626e-16, 4.440892098500626e-16)"/>
  <path d="M23.467 15.733c0 0.736-0.597 1.333-1.333 1.333s-1.333-0.597-1.333-1.333c0-0.736 0.597-1.333 1.333-1.333s1.333 0.597 1.333 1.333z" style="fill: rgb(45, 113, 173);" transform="matrix(1, 0, 0, 1, 4.440892098500626e-16, 4.440892098500626e-16)"/>
</svg>