<?xml version="1.0" encoding="utf-8"?>
<svg viewBox="0 0 28 32" width="28" height="32" xmlns="http://www.w3.org/2000/svg">
  <defs>
    <linearGradient id="gradient-4" gradientUnits="userSpaceOnUse" x1="14.162" y1="4.97" x2="14.162" y2="27.029" gradientTransform="matrix(0.757464, -0.608355, 0.78768, 0.980741, -7.149151, 8.881896)">
      <stop offset="0" style="stop-color: rgb(54, 71, 107);"/>
      <stop offset="1" style="stop-color: rgb(44, 117, 179);"/>
    </linearGradient>
  </defs>
  <g id="icomoon-ignore" transform="matrix(1, 0, 0, 1, 8.881784197001252e-16, 4.440892098500626e-16)"/>
  <path d="M 0.204 21.967 C 0.204 22.413 0.204 23.735 0.204 24.027 C 0.204 24.318 0.377 24.817 1.003 24.817 C 1.483 24.817 5.314 24.817 7.07 24.817 C 7.601 24.817 7.944 24.817 7.944 24.817 L 8.095 24.817 C 8.095 24.817 8.196 24.817 8.358 24.817 C 8.358 25.287 8.358 25.714 8.358 25.878 C 8.358 26.239 8.572 26.856 9.346 26.856 C 9.941 26.856 14.698 26.856 16.871 26.856 C 17.529 26.856 17.956 26.856 17.956 26.856 L 18.142 26.856 C 18.142 26.856 18.56 26.856 19.208 26.856 C 21.373 26.856 26.139 26.856 26.734 26.856 C 27.508 26.856 27.722 26.24 27.722 25.878 C 27.722 25.517 27.722 23.882 27.722 23.33 C 27.722 22.778 27.527 22.166 26.734 21.826 C 25.732 21.387 23.043 20.416 21.355 19.917 C 21.225 19.875 21.202 19.869 21.202 19.29 C 21.202 18.666 21.274 18.224 21.426 17.899 C 21.635 17.456 21.881 16.71 21.969 16.042 C 22.218 15.754 22.555 15.187 22.771 14.106 C 22.963 13.152 22.873 12.806 22.747 12.48 C 22.734 12.446 22.719 12.412 22.709 12.373 C 22.663 12.155 22.727 10.994 22.892 10.092 C 23.005 9.474 22.863 8.161 22.012 7.073 C 21.474 6.386 20.446 5.542 18.599 5.426 L 17.569 5.425 C 15.691 5.543 14.663 6.386 14.126 7.073 C 13.275 8.16 13.134 9.474 13.247 10.092 C 13.41 10.993 13.476 12.154 13.427 12.377 C 13.418 12.411 13.403 12.445 13.39 12.479 C 13.264 12.805 13.176 13.151 13.365 14.105 C 13.582 15.186 13.92 15.753 14.168 16.041 C 14.256 16.709 14.503 17.455 14.711 17.898 C 14.903 18.306 15.099 18.788 15.099 19.267 C 15.099 19.847 15.077 19.854 14.938 19.898 C 14.59 20 14.197 20.123 13.783 20.255 C 12.808 19.893 11.58 19.469 10.691 19.206 C 10.585 19.173 10.567 19.167 10.567 18.699 C 10.567 18.195 10.625 17.837 10.748 17.575 C 10.917 17.216 11.116 16.614 11.188 16.073 C 11.388 15.841 11.661 15.382 11.836 14.508 C 11.99 13.737 11.918 13.458 11.816 13.194 C 11.805 13.166 11.793 13.139 11.785 13.108 C 11.748 12.931 11.799 11.992 11.931 11.264 C 12.022 10.764 11.909 9.703 11.221 8.822 C 10.787 8.268 9.955 7.586 8.464 7.49 L 7.632 7.49 C 6.115 7.585 5.284 8.268 4.85 8.822 C 4.162 9.703 4.047 10.764 4.14 11.264 C 4.271 11.992 4.325 12.931 4.286 13.112 C 4.279 13.139 4.266 13.166 4.256 13.194 C 4.153 13.458 4.082 13.737 4.236 14.508 C 4.411 15.382 4.684 15.841 4.884 16.073 C 4.956 16.614 5.155 17.215 5.323 17.575 C 5.478 17.905 5.638 18.295 5.638 18.681 C 5.638 19.151 5.62 19.155 5.508 19.191 C 4.188 19.581 2.056 20.321 1.153 20.699 C 0.512 20.974 0.205 21.52 0.205 21.966 Z M 9.376 23.331 C 9.376 23.18 9.528 22.874 9.934 22.701 C 11.005 22.253 13.631 21.347 15.227 20.877 C 16.118 20.597 16.118 19.83 16.118 19.269 C 16.118 18.59 15.873 17.977 15.632 17.466 C 15.466 17.11 15.252 16.47 15.177 15.909 L 15.137 15.607 L 14.938 15.377 C 14.828 15.25 14.552 14.852 14.364 13.905 C 14.216 13.166 14.281 12.998 14.339 12.849 L 14.34 12.847 L 14.348 12.822 C 14.37 12.77 14.388 12.717 14.403 12.666 L 14.413 12.629 L 14.421 12.591 C 14.525 12.104 14.389 10.701 14.246 9.911 C 14.181 9.556 14.263 8.549 14.926 7.701 C 15.516 6.947 16.416 6.525 17.6 6.444 L 18.565 6.445 C 20.015 6.544 20.802 7.182 21.208 7.701 C 21.872 8.549 21.952 9.556 21.888 9.91 C 21.748 10.68 21.609 12.105 21.712 12.586 L 21.717 12.607 L 21.723 12.629 C 21.745 12.711 21.771 12.785 21.801 12.859 C 21.853 12.996 21.919 13.167 21.772 13.904 C 21.582 14.852 21.307 15.248 21.198 15.374 L 20.997 15.606 L 20.959 15.909 C 20.884 16.471 20.671 17.108 20.503 17.464 C 20.284 17.931 20.182 18.51 20.182 19.289 C 20.182 19.848 20.182 20.614 21.045 20.888 C 22.689 21.373 25.359 22.336 26.324 22.759 C 26.612 22.882 26.702 23.02 26.702 23.329 L 26.702 25.835 L 9.382 25.835 L 9.377 23.329 Z M 1.223 21.967 C 1.225 21.927 1.288 21.751 1.554 21.637 C 2.428 21.27 4.533 20.543 5.795 20.17 C 6.656 19.896 6.656 19.136 6.656 18.682 C 6.656 18.097 6.448 17.575 6.244 17.142 C 6.112 16.859 5.949 16.354 5.893 15.94 L 5.853 15.639 L 5.655 15.408 C 5.593 15.337 5.382 15.047 5.235 14.308 C 5.126 13.766 5.169 13.654 5.204 13.563 L 5.21 13.55 L 5.214 13.536 C 5.235 13.484 5.249 13.442 5.261 13.4 L 5.272 13.362 L 5.28 13.324 C 5.38 12.854 5.236 11.612 5.14 11.081 C 5.096 10.832 5.162 10.077 5.652 9.449 C 6.092 8.887 6.769 8.571 7.664 8.509 L 8.43 8.509 C 9.525 8.586 10.114 9.061 10.418 9.449 C 10.907 10.076 10.974 10.832 10.93 11.081 C 10.827 11.642 10.693 12.87 10.788 13.32 L 10.793 13.341 L 10.797 13.362 C 10.817 13.434 10.839 13.498 10.864 13.563 C 10.899 13.653 10.943 13.767 10.835 14.308 C 10.687 15.048 10.476 15.336 10.415 15.407 L 10.216 15.638 L 10.177 15.939 C 10.121 16.355 9.958 16.859 9.824 17.142 C 9.635 17.547 9.546 18.041 9.546 18.699 C 9.546 19.154 9.546 19.914 10.381 20.178 C 10.908 20.335 11.565 20.551 12.214 20.777 C 11.142 21.144 10.12 21.516 9.53 21.763 C 8.735 22.104 8.355 22.778 8.355 23.33 C 8.355 23.445 8.355 23.609 8.355 23.797 L 1.221 23.797 L 1.221 21.967 Z" style="fill: url(#gradient-4);" transform="matrix(1, 0, 0, 1, 8.881784197001252e-16, 4.440892098500626e-16)"/>
</svg>